<?xml version="1.0" encoding="UTF-8" standalone="no"?>
<!-- Created with Inkscape (http://www.inkscape.org/) -->

<svg
   width="210mm"
   height="297mm"
   viewBox="0 0 210 297"
   version="1.1"
   id="svg5"
   xmlns="http://www.w3.org/2000/svg"
   xmlns:svg="http://www.w3.org/2000/svg">
  <defs
     id="defs2">
    <rect
       x="-354.61127"
       y="499.76303"
       width="232.78731"
       height="216.6188"
       id="rect1367" />
    <clipPath
       clipPathUnits="userSpaceOnUse"
       id="clipPath1267">
      <path
         id="path1269"
         style="fill:#ff0000;fill-opacity:1;fill-rule:nonzero;stroke:none;stroke-width:0.264583"
         d="M 31.493169,-1.4893148 V 214.86957 H 180.1921 V 105.87519 h -1.40508 -6.46782 c -2.11702,-0.0229 -4.236,0.0595 -6.35,-0.0677 -1.70554,-0.16511 -3.41003,-0.33456 -5.1201,-0.44545 -1.54293,-0.0914 -3.08866,-0.11704 -4.63383,-0.14004 -1.17529,5.3e-4 -2.34576,-0.0125 -3.51813,-0.094 -6.47121,-0.45044 -6.27694,-6.84606 -0.37724,-6.894667 0.29015,-0.0024 0.59446,0.01053 0.91209,0.04031 1.02605,0.09618 2.05604,0.04718 3.0856,0.0739 1.66008,0.02482 3.32092,0.05451 4.97851,0.154511 1.71437,0.11217 3.42432,0.273029 5.13353,0.445968 1.95662,0.154255 3.92901,-0.0088 5.88957,0.05219 h 6.46782 1.40508 V -1.4893148 Z" />
    </clipPath>
    <clipPath
       clipPathUnits="userSpaceOnUse"
       id="clipPath1299">
      <path
         id="path1301"
         style="fill:#ff0000;fill-opacity:1;fill-rule:nonzero;stroke:none;stroke-width:0.248737"
         d="m 280.39468,109.03043 c -0.76947,2.2e-4 -1.53897,4.7e-4 -2.30847,9.3e-4 -1.78933,10e-4 -3.57863,0.003 -5.36796,0.01 -1.92414,0.008 -3.84851,0.0164 -5.77218,0.0571 -0.62566,0.0154 -1.25133,0.0347 -1.87686,0.0575 -0.76888,0.29884 -1.73647,0.48172 -2.91012,0.48172 h -2.66306 c -1.36139,0.2121 -2.70877,0.48838 -4.04368,0.8164 -1.86756,0.41977 -3.74123,0.79123 -5.66674,0.92279 v -4.7e-4 c -2.66578,0.18213 -4.43051,-0.64444 -5.18499,-1.73873 h -5.47858 -7.41954 -5.93707 c -0.83219,0.714 -2.22449,1.21501 -4.17911,1.21501 h -5.76133 -6.6597 -6.81063 -6.69123 -6.57182 -6.46948 c -2.11756,-0.0202 -4.23709,0.0526 -6.35163,-0.0598 -1.70597,-0.14588 -3.4109,-0.2956 -5.12141,-0.39358 -1.54333,-0.0807 -3.08946,-0.10342 -4.63501,-0.12374 -1.17559,4.7e-4 -2.34637,-0.011 -3.51904,-0.0831 -1.47212,-0.0905 -2.59558,-0.45452 -3.38929,-0.96069 V 211.3627 h 120.78893 z" />
    </clipPath>
    <clipPath
       clipPathUnits="userSpaceOnUse"
       id="clipPath1309">
      <path
         id="path1311"
         style="fill:#ff0000;fill-opacity:1;fill-rule:nonzero;stroke:none;stroke-width:0.252023"
         d="m 254.8261,75.430853 c -1.64693,9.6e-4 -3.2938,9.6e-4 -4.94073,0.0019 -1.78922,0.0014 -3.57841,0.0035 -5.36763,0.0098 -1.92402,0.0084 -3.84827,0.01687 -5.77183,0.0586 -0.62371,0.01574 -1.24746,0.03526 -1.87105,0.0586 -0.76941,0.307795 -1.73996,0.495026 -2.91563,0.495026 h -2.66289 c -1.36132,0.217762 -2.70861,0.501404 -4.04343,0.838171 -1.86746,0.43096 -3.741,0.812331 -5.66639,0.947393 v -4.8e-4 c -2.66563,0.186984 -4.43024,-0.661624 -5.18468,-1.785096 h -5.47825 -7.41907 -5.93671 c -0.83214,0.733043 -2.22434,1.247412 -4.17886,1.247412 h -5.76097 -6.65929 -1.14951 V 181.11249 H 304.1805 V 75.430881 h -1.3299 -6.01735 -6.145 -6.14914 -5.15781 -5.52372 -5.33612 -4.74276 c -1.50268,1e-5 -3.00538,-1.9e-5 -4.50808,0 -1.48159,2.7e-5 -2.96296,-1.46e-4 -4.44452,0 z" />
    </clipPath>
  </defs>
  <g
     id="layer1">
    <path
       style="fill:none;stroke:#000000;stroke-width:6.48;stroke-linecap:butt;stroke-linejoin:miter;stroke-dasharray:none;stroke-opacity:1"
       d="m 31.999604,213.4027 v -0.35975 l -0.366637,1.79876 V 36.764761 L 106.42709,212.6832 v 0 0 C 114.85976,37.124512 180.1213,-1.3688891 180.1213,-1.3688891 v 0"
       id="path794"
       clip-path="url(#clipPath1267)"
       transform="matrix(0.69824908,0,0,0.76718286,-18.475609,5.8331793)" />
    <ellipse
       style="opacity:1;fill:#808080;fill-opacity:0;stroke:#000000;stroke-width:1.82974;stroke-linecap:round;stroke-dasharray:none;stroke-opacity:1"
       id="path1007"
       cx="95.520226"
       cy="129.12186"
       rx="29.882895"
       ry="38.37109" />
    <path
       style="opacity:1;fill:#808080;fill-opacity:0;stroke:#000000;stroke-width:2.71081;stroke-linecap:round;stroke-dasharray:none;stroke-opacity:1"
       id="path1175"
       d="m 219.99999,211.06248 -60.13465,-104.15624 120.26928,-1e-5 z"
       transform="matrix(0.69807074,0,0,0.86827347,-21.316563,-14.310941)"
       clip-path="url(#clipPath1299)" />
    <path
       style="opacity:1;fill:#808080;fill-opacity:0;stroke:#000000;stroke-width:2.71081;stroke-linecap:round;stroke-dasharray:none;stroke-opacity:1"
       id="path1177"
       d="m 242,180.81249 -61.92081,-107.249985 123.84162,-3e-6 z"
       transform="matrix(0.69811372,0,0,0.84572096,-1.9805522,13.579219)"
       clip-path="url(#clipPath1309)" />
    <text
       xml:space="preserve"
       transform="matrix(0.09408436,-0.20060394,0.12110239,0.07364589,54.811831,-55.674483)"
       id="text1365"
       style="font-style:normal;font-variant:normal;font-weight:normal;font-stretch:normal;font-size:52.6047px;line-height:1.3;font-family:'MV Boli';-inkscape-font-specification:'MV Boli';white-space:pre;shape-inside:url(#rect1367);opacity:1;fill:#808080;fill-opacity:0;stroke:#000000;stroke-width:1.13386;stroke-linecap:round;stroke-dasharray:none;stroke-opacity:1"><tspan
         x="-354.61133"
         y="548.94906"
         id="tspan1514"><tspan
           style="font-family:'Tw Cen MT';-inkscape-font-specification:'Tw Cen MT';stroke-width:4.55631;stroke-linejoin:round;stroke-dashoffset:8.94693"
           id="tspan1512">PHOTO</tspan></tspan></text>
  </g>
</svg>
